<svg width="24" height="24" viewBox="0 0 24 24" fill="none" xmlns="http://www.w3.org/2000/svg">
  <g clip-path="url(#clip0_11973_509)">
    <path d="M16.5898 14.0547H15.7998L15.5198 13.7847C16.4998 12.6447 17.0898 11.1647 17.0898 9.55469C17.0898 5.96469 14.1798 3.05469 10.5898 3.05469C6.99984 3.05469 4.08984 5.96469 4.08984 9.55469C4.08984 13.1447 6.99984 16.0547 10.5898 16.0547C12.1998 16.0547 13.6798 15.4647 14.8198 14.4847L15.0898 14.7647V15.5547L19.3441 19.8004C19.7561 20.2116 20.4233 20.2113 20.8348 19.7997C21.2464 19.3881 21.2467 18.7209 20.8356 18.3089L16.5898 14.0547ZM10.5898 14.0547C8.09984 14.0547 6.08984 12.0447 6.08984 9.55469C6.08984 7.06469 8.09984 5.05469 10.5898 5.05469C13.0798 5.05469 15.0898 7.06469 15.0898 9.55469C15.0898 12.0447 13.0798 14.0547 10.5898 14.0547Z" fill="#26292E"/>
  </g>
  <defs>
    <clipPath id="clip0_11973_509">
      <rect width="24" height="24" fill="white"/>
    </clipPath>
  </defs>
</svg>