<svg xmlns="http://www.w3.org/2000/svg" width="25" height="24" viewBox="0 0 25 24" fill="none">
  <path d="M12.0249 4.5C7.0249 4.5 2.7549 7.61 1.0249 12C2.7549 16.39 7.0249 19.5 12.0249 19.5C17.0249 19.5 21.2949 16.39 23.0249 12C21.2949 7.61 17.0249 4.5 12.0249 4.5ZM12.0249 17C9.2649 17 7.0249 14.76 7.0249 12C7.0249 9.24 9.2649 7 12.0249 7C14.7849 7 17.0249 9.24 17.0249 12C17.0249 14.76 14.7849 17 12.0249 17ZM12.0249 9C10.3649 9 9.0249 10.34 9.0249 12C9.0249 13.66 10.3649 15 12.0249 15C13.6849 15 15.0249 13.66 15.0249 12C15.0249 10.34 13.6849 9 12.0249 9Z" fill="#0056AC"/>
</svg>